<svg width="100" height="100" viewBox="0 0 351 227" fill="none" xmlns="http://www.w3.org/2000/svg">
<rect x="65" y="8" width="239" height="211" fill="white" stroke="black" stroke-width="16"/>
<rect x="102" y="40" width="165" height="147" fill="black"/>
<rect y="83" width="351" height="62" fill="white"/>
<path d="M73.152 125.192C72.6613 125.213 72.2773 125.085 72 124.808C71.7227 124.531 71.584 124.179 71.584 123.752C71.584 123.432 71.6907 123.144 71.904 122.888C72.096 122.632 72.384 122.493 72.768 122.472L73.76 122.408C74.784 122.323 75.5627 121.981 76.096 121.384C76.6293 120.765 76.896 119.912 76.896 118.824V103.88C76.896 103.325 77.0347 102.909 77.312 102.632C77.5893 102.355 77.9947 102.216 78.528 102.216C79.0613 102.216 79.4667 102.355 79.744 102.632C80.0427 102.909 80.192 103.325 80.192 103.88V118.824C80.192 120.104 79.9573 121.203 79.488 122.12C79.04 123.016 78.3787 123.72 77.504 124.232C76.6293 124.744 75.5413 125.043 74.24 125.128L73.152 125.192ZM87.2285 125C86.6525 125 86.2045 124.851 85.8845 124.552C85.5858 124.232 85.4365 123.784 85.4365 123.208V104.232C85.4365 103.656 85.5858 103.219 85.8845 102.92C86.2045 102.6 86.6525 102.44 87.2285 102.44H94.8445C96.4018 102.44 97.7245 102.675 98.8125 103.144C99.9218 103.613 100.765 104.285 101.341 105.16C101.938 106.035 102.237 107.091 102.237 108.328C102.237 109.693 101.831 110.845 101.021 111.784C100.21 112.723 99.1112 113.352 97.7245 113.672V113.192C99.3032 113.405 100.541 114.003 101.437 114.984C102.333 115.944 102.781 117.203 102.781 118.76C102.781 120.765 102.119 122.312 100.797 123.4C99.4738 124.467 97.6178 125 95.2285 125H87.2285ZM88.6365 122.44H94.8445C96.4445 122.44 97.6285 122.131 98.3965 121.512C99.1645 120.872 99.5485 119.912 99.5485 118.632C99.5485 117.352 99.1645 116.403 98.3965 115.784C97.6285 115.165 96.4445 114.856 94.8445 114.856H88.6365V122.44ZM88.6365 112.296H94.3325C95.8685 112.296 97.0312 111.987 97.8205 111.368C98.6098 110.749 99.0045 109.843 99.0045 108.648C99.0045 107.453 98.6098 106.547 97.8205 105.928C97.0312 105.309 95.8685 105 94.3325 105H88.6365V112.296ZM115.559 125.224C115.132 125.224 114.791 125.128 114.535 124.936C114.279 124.744 114.129 124.488 114.087 124.168C114.044 123.848 114.108 123.485 114.279 123.08L122.951 103.624C123.164 103.112 123.431 102.749 123.751 102.536C124.092 102.323 124.465 102.216 124.871 102.216C125.255 102.216 125.607 102.323 125.927 102.536C126.268 102.749 126.545 103.112 126.759 103.624L135.431 123.08C135.623 123.485 135.697 123.859 135.655 124.2C135.612 124.52 135.473 124.776 135.239 124.968C135.004 125.139 134.673 125.224 134.247 125.224C133.777 125.224 133.404 125.107 133.127 124.872C132.849 124.637 132.604 124.275 132.391 123.784L130.151 118.6L131.655 119.496H118.023L119.495 118.6L117.286 123.784C117.073 124.296 116.839 124.669 116.583 124.904C116.327 125.117 115.985 125.224 115.559 125.224ZM124.807 106.12L119.975 117.576L119.175 116.808H130.471L129.735 117.576L124.871 106.12H124.807ZM141.041 125C140.465 125 140.017 124.851 139.697 124.552C139.398 124.232 139.249 123.784 139.249 123.208V104.232C139.249 103.656 139.398 103.219 139.697 102.92C140.017 102.6 140.465 102.44 141.041 102.44H148.657C150.214 102.44 151.537 102.675 152.625 103.144C153.734 103.613 154.577 104.285 155.153 105.16C155.75 106.035 156.049 107.091 156.049 108.328C156.049 109.693 155.644 110.845 154.833 111.784C154.022 112.723 152.924 113.352 151.537 113.672V113.192C153.116 113.405 154.353 114.003 155.249 114.984C156.145 115.944 156.593 117.203 156.593 118.76C156.593 120.765 155.932 122.312 154.609 123.4C153.286 124.467 151.43 125 149.041 125H141.041ZM142.449 122.44H148.657C150.257 122.44 151.441 122.131 152.209 121.512C152.977 120.872 153.361 119.912 153.361 118.632C153.361 117.352 152.977 116.403 152.209 115.784C151.441 115.165 150.257 114.856 148.657 114.856H142.449V122.44ZM142.449 112.296H148.145C149.681 112.296 150.844 111.987 151.633 111.368C152.422 110.749 152.817 109.843 152.817 108.648C152.817 107.453 152.422 106.547 151.633 105.928C150.844 105.309 149.681 105 148.145 105H142.449V112.296ZM170.854 125.288C168.72 125.288 166.854 124.819 165.254 123.88C163.675 122.92 162.448 121.576 161.574 119.848C160.72 118.099 160.294 116.051 160.294 113.704C160.294 111.933 160.539 110.344 161.03 108.936C161.52 107.507 162.224 106.291 163.141 105.288C164.059 104.264 165.168 103.485 166.47 102.952C167.771 102.419 169.232 102.152 170.854 102.152C173.008 102.152 174.875 102.621 176.454 103.56C178.032 104.499 179.248 105.832 180.102 107.56C180.976 109.288 181.414 111.325 181.414 113.672C181.414 115.443 181.168 117.043 180.678 118.472C180.187 119.901 179.472 121.128 178.534 122.152C177.616 123.176 176.507 123.955 175.206 124.488C173.904 125.021 172.454 125.288 170.854 125.288ZM170.854 122.408C172.347 122.408 173.616 122.067 174.662 121.384C175.728 120.701 176.539 119.709 177.094 118.408C177.67 117.107 177.958 115.539 177.958 113.704C177.958 110.952 177.339 108.819 176.102 107.304C174.864 105.789 173.115 105.032 170.854 105.032C169.36 105.032 168.08 105.373 167.014 106.056C165.968 106.717 165.158 107.699 164.582 109C164.027 110.301 163.75 111.869 163.75 113.704C163.75 116.435 164.368 118.568 165.606 120.104C166.864 121.64 168.614 122.408 170.854 122.408ZM196.434 125.288C193.981 125.288 191.911 124.829 190.226 123.912C188.541 122.973 187.261 121.64 186.386 119.912C185.533 118.184 185.106 116.125 185.106 113.736C185.106 111.944 185.351 110.344 185.842 108.936C186.354 107.507 187.079 106.291 188.018 105.288C188.978 104.264 190.141 103.485 191.506 102.952C192.893 102.419 194.461 102.152 196.21 102.152C197.49 102.152 198.749 102.323 199.986 102.664C201.223 102.984 202.354 103.517 203.378 104.264C203.677 104.477 203.869 104.723 203.954 105C204.039 105.277 204.039 105.565 203.954 105.864C203.89 106.141 203.751 106.387 203.538 106.6C203.346 106.813 203.101 106.941 202.802 106.984C202.525 107.027 202.215 106.941 201.874 106.728C201.042 106.152 200.167 105.736 199.25 105.48C198.333 105.203 197.319 105.064 196.21 105.064C194.546 105.064 193.138 105.405 191.986 106.088C190.855 106.771 190.002 107.763 189.426 109.064C188.85 110.344 188.562 111.901 188.562 113.736C188.562 116.573 189.234 118.728 190.578 120.2C191.922 121.672 193.917 122.408 196.562 122.408C197.522 122.408 198.461 122.323 199.378 122.152C200.317 121.96 201.213 121.693 202.066 121.352L201.394 123.016V115.56H197.266C196.839 115.56 196.498 115.453 196.242 115.24C196.007 115.005 195.89 114.685 195.89 114.28C195.89 113.875 196.007 113.576 196.242 113.384C196.498 113.171 196.839 113.064 197.266 113.064H202.802C203.25 113.064 203.591 113.181 203.826 113.416C204.061 113.651 204.178 113.992 204.178 114.44V122.504C204.178 122.888 204.103 123.219 203.954 123.496C203.826 123.752 203.602 123.944 203.282 124.072C202.365 124.435 201.287 124.733 200.05 124.968C198.813 125.181 197.607 125.288 196.434 125.288ZM209.152 125.224C208.726 125.224 208.384 125.128 208.128 124.936C207.872 124.744 207.723 124.488 207.68 124.168C207.638 123.848 207.702 123.485 207.872 123.08L216.544 103.624C216.758 103.112 217.024 102.749 217.344 102.536C217.686 102.323 218.059 102.216 218.464 102.216C218.848 102.216 219.2 102.323 219.52 102.536C219.862 102.749 220.139 103.112 220.352 103.624L229.024 123.08C229.216 123.485 229.291 123.859 229.248 124.2C229.206 124.52 229.067 124.776 228.832 124.968C228.598 125.139 228.267 125.224 227.84 125.224C227.371 125.224 226.998 125.107 226.72 124.872C226.443 124.637 226.198 124.275 225.984 123.784L223.744 118.6L225.248 119.496H211.616L213.088 118.6L210.88 123.784C210.667 124.296 210.432 124.669 210.176 124.904C209.92 125.117 209.579 125.224 209.152 125.224ZM218.4 106.12L213.568 117.576L212.768 116.808H224.064L223.328 117.576L218.464 106.12H218.4ZM234.635 125C234.059 125 233.611 124.851 233.291 124.552C232.992 124.232 232.843 123.784 232.843 123.208V104.232C232.843 103.656 232.992 103.219 233.291 102.92C233.611 102.6 234.059 102.44 234.635 102.44H240.811C244.523 102.44 247.381 103.411 249.387 105.352C251.413 107.272 252.427 110.056 252.427 113.704C252.427 115.517 252.171 117.128 251.659 118.536C251.147 119.944 250.389 121.128 249.387 122.088C248.405 123.027 247.2 123.752 245.771 124.264C244.341 124.755 242.688 125 240.811 125H234.635ZM236.171 122.216H240.619C242.027 122.216 243.243 122.045 244.267 121.704C245.312 121.341 246.187 120.808 246.891 120.104C247.595 119.4 248.117 118.515 248.459 117.448C248.8 116.381 248.971 115.133 248.971 113.704C248.971 110.867 248.267 108.744 246.859 107.336C245.472 105.928 243.392 105.224 240.619 105.224H236.171V122.216ZM266.666 125.288C264.533 125.288 262.666 124.819 261.066 123.88C259.487 122.92 258.261 121.576 257.386 119.848C256.533 118.099 256.106 116.051 256.106 113.704C256.106 111.933 256.351 110.344 256.842 108.936C257.333 107.507 258.037 106.291 258.954 105.288C259.871 104.264 260.981 103.485 262.282 102.952C263.583 102.419 265.045 102.152 266.666 102.152C268.821 102.152 270.687 102.621 272.266 103.56C273.845 104.499 275.061 105.832 275.914 107.56C276.789 109.288 277.226 111.325 277.226 113.672C277.226 115.443 276.981 117.043 276.49 118.472C275.999 119.901 275.285 121.128 274.346 122.152C273.429 123.176 272.319 123.955 271.018 124.488C269.717 125.021 268.266 125.288 266.666 125.288ZM266.666 122.408C268.159 122.408 269.429 122.067 270.474 121.384C271.541 120.701 272.351 119.709 272.906 118.408C273.482 117.107 273.77 115.539 273.77 113.704C273.77 110.952 273.151 108.819 271.914 107.304C270.677 105.789 268.927 105.032 266.666 105.032C265.173 105.032 263.893 105.373 262.826 106.056C261.781 106.717 260.97 107.699 260.394 109C259.839 110.301 259.562 111.869 259.562 113.704C259.562 116.435 260.181 118.568 261.418 120.104C262.677 121.64 264.426 122.408 266.666 122.408ZM289.207 125.288C288.225 125.288 287.265 125.213 286.327 125.064C285.388 124.915 284.503 124.691 283.671 124.392C282.839 124.072 282.092 123.688 281.431 123.24C281.111 123.005 280.887 122.739 280.759 122.44C280.652 122.141 280.62 121.853 280.663 121.576C280.727 121.277 280.855 121.021 281.047 120.808C281.239 120.595 281.473 120.467 281.751 120.424C282.028 120.36 282.337 120.445 282.679 120.68C283.639 121.299 284.652 121.757 285.719 122.056C286.785 122.333 287.948 122.472 289.207 122.472C291.02 122.472 292.353 122.152 293.207 121.512C294.081 120.851 294.519 119.997 294.519 118.952C294.519 118.099 294.209 117.427 293.591 116.936C292.972 116.424 291.937 116.019 290.487 115.72L287.062 115.016C285.036 114.589 283.521 113.885 282.519 112.904C281.537 111.923 281.047 110.6 281.047 108.936C281.047 107.933 281.249 107.016 281.655 106.184C282.081 105.352 282.668 104.637 283.415 104.04C284.161 103.421 285.057 102.952 286.103 102.632C287.148 102.312 288.289 102.152 289.527 102.152C290.849 102.152 292.087 102.323 293.239 102.664C294.412 103.005 295.457 103.528 296.375 104.232C296.652 104.424 296.833 104.669 296.919 104.968C297.025 105.245 297.047 105.523 296.983 105.8C296.94 106.077 296.823 106.312 296.631 106.504C296.439 106.696 296.193 106.813 295.895 106.856C295.596 106.877 295.265 106.771 294.903 106.536C294.071 105.981 293.217 105.587 292.343 105.352C291.489 105.096 290.54 104.968 289.495 104.968C288.449 104.968 287.532 105.128 286.743 105.448C285.975 105.768 285.377 106.216 284.951 106.792C284.545 107.368 284.343 108.051 284.343 108.84C284.343 109.736 284.631 110.451 285.207 110.984C285.783 111.517 286.743 111.923 288.087 112.2L291.479 112.904C293.612 113.352 295.201 114.045 296.247 114.984C297.292 115.923 297.815 117.171 297.815 118.728C297.815 119.731 297.612 120.637 297.207 121.448C296.801 122.237 296.225 122.92 295.479 123.496C294.732 124.072 293.825 124.52 292.759 124.84C291.713 125.139 290.529 125.288 289.207 125.288Z" fill="black"/>
</svg>
